<?xml version="1.0" standalone="no"?>
<!DOCTYPE svg PUBLIC "-//W3C//DTD SVG 20010904//EN"
 "http://www.w3.org/TR/2001/REC-SVG-20010904/DTD/svg10.dtd">
<svg version="1.0" xmlns="http://www.w3.org/2000/svg"
 width="700.000000pt" height="700.000000pt" viewBox="0 0 700.000000 700.000000"
 preserveAspectRatio="xMidYMid meet">
<metadata>
Created by potrace 1.11, written by Peter Selinger 2001-2013
</metadata>
<g transform="translate(0.000000,700.000000) scale(0.100000,-0.100000)"
fill="#000000" stroke="none">
<path d="M3367 6994 c-1 -1 -42 -5 -92 -9 -49 -3 -103 -8 -119 -10 -16 -2 -59
-6 -94 -10 -36 -3 -68 -8 -71 -9 -3 -2 -28 -7 -54 -10 -386 -52 -868 -231
-1265 -471 -208 -126 -442 -312 -634 -507 -471 -476 -777 -1035 -927 -1693
-22 -94 -25 -113 -40 -210 -46 -291 -57 -648 -26 -848 2 -12 6 -49 9 -82 9
-90 15 -134 26 -195 6 -30 12 -68 15 -85 30 -173 129 -491 218 -695 242 -557
563 -974 1059 -1375 9 -7 68 -49 130 -93 389 -273 857 -479 1278 -561 30 -6
66 -14 80 -16 47 -10 75 -14 155 -24 80 -10 116 -14 255 -27 99 -10 397 -10
485 0 260 27 293 32 363 47 23 5 59 12 80 15 125 18 437 114 632 194 113 47
358 170 440 221 137 86 176 112 250 163 223 156 509 423 650 606 19 25 37 47
40 50 3 3 26 32 51 65 293 387 529 890 614 1308 2 10 6 26 9 35 3 9 8 33 11
52 3 19 10 53 15 75 5 22 11 63 15 90 3 28 7 57 10 65 2 8 6 44 9 80 3 36 9
101 13 145 15 155 9 483 -12 645 -53 424 -147 748 -325 1115 -117 241 -246
446 -417 660 -103 130 -373 402 -493 498 -47 37 -92 73 -100 80 -35 28 -190
138 -255 179 -271 174 -648 340 -955 419 -76 20 -240 57 -285 64 -16 3 -41 8
-55 10 -58 12 -72 14 -137 20 -37 4 -79 8 -93 10 -74 11 -454 26 -463 19z
m438 -307 c17 -3 59 -8 95 -12 36 -4 74 -9 85 -11 11 -3 36 -7 55 -10 19 -2
49 -8 65 -12 17 -3 35 -7 40 -7 42 -4 296 -75 412 -115 683 -240 1278 -724
1658 -1350 112 -184 214 -403 289 -619 33 -94 91 -305 102 -371 3 -14 9 -47
14 -75 22 -114 25 -138 35 -245 4 -41 9 -88 11 -105 6 -42 6 -411 0 -465 -3
-25 -8 -72 -11 -105 -3 -33 -8 -71 -10 -85 -2 -14 -6 -43 -10 -65 -9 -60 -15
-97 -20 -125 -3 -14 -7 -34 -9 -45 -7 -35 -47 -187 -71 -271 -145 -500 -476
-1031 -871 -1395 -62 -56 -176 -152 -219 -184 -22 -17 -42 -33 -45 -36 -27
-32 -302 -204 -444 -278 -338 -176 -774 -306 -1126 -337 -36 -3 -81 -7 -100
-10 -47 -5 -402 -5 -465 1 -124 10 -178 17 -295 36 -374 61 -752 198 -1078
391 -85 49 -263 166 -272 178 -3 3 -21 17 -40 30 -19 13 -40 29 -46 35 -6 5
-28 24 -49 40 -161 126 -395 370 -525 547 -34 45 -68 91 -76 101 -8 9 -14 20
-14 23 0 3 -11 20 -24 37 -68 93 -203 341 -270 500 -212 498 -295 1040 -241
1572 44 431 187 879 401 1252 349 608 906 1100 1534 1357 36 15 74 31 85 36
81 38 455 143 552 156 19 2 38 6 42 8 4 3 36 8 71 11 36 4 67 8 70 10 3 2 46
6 95 10 50 4 92 9 94 10 5 5 490 -3 526 -8z"/>
<path d="M3417 6394 c-1 -2 -41 -4 -87 -5 -75 -2 -178 -12 -320 -33 -84 -13
-97 -16 -237 -51 -454 -114 -861 -333 -1208 -648 -185 -169 -327 -333 -456
-527 -70 -106 -185 -300 -194 -329 -3 -11 -22 -52 -42 -93 -36 -73 -93 -216
-111 -279 -32 -106 -54 -187 -59 -209 -2 -14 -9 -45 -14 -70 -6 -25 -12 -53
-14 -64 -4 -17 -14 -98 -18 -141 -2 -19 7 -19 568 -20 314 -1 577 2 586 6 9 5
24 38 34 76 20 76 87 249 118 303 11 19 27 49 35 65 25 49 108 169 163 236
160 191 416 386 647 491 118 54 303 111 402 125 19 2 60 8 90 13 59 9 342 6
400 -5 19 -3 58 -10 85 -16 28 -5 60 -11 73 -14 47 -9 264 -75 277 -84 6 -4
31 -15 57 -25 222 -82 490 -283 653 -491 133 -170 210 -315 296 -559 22 -60
42 -112 45 -115 8 -8 1124 -10 1128 -2 4 5 -8 88 -28 201 -13 68 -65 256 -101
358 -68 196 -163 391 -278 572 -40 63 -165 240 -177 250 -3 3 -24 27 -45 55
-65 81 -244 262 -335 339 -47 39 -87 73 -90 76 -30 31 -254 183 -340 232 -245
138 -474 232 -718 293 -126 31 -232 52 -307 61 -33 3 -68 8 -78 10 -53 10
-393 25 -400 18z"/>
<path d="M3465 4622 c-16 -48 -32 -94 -36 -102 -4 -8 -14 -35 -22 -60 -9 -25
-31 -88 -50 -140 -19 -52 -51 -142 -71 -200 -21 -58 -52 -148 -71 -200 -119
-332 -145 -408 -145 -416 0 -5 178 -9 430 -9 251 0 430 4 430 9 0 5 -23 73
-51 150 -28 78 -80 222 -116 321 -35 99 -75 209 -88 245 -13 36 -56 155 -95
265 -40 110 -75 205 -79 212 -4 7 -20 -27 -36 -75z m45 -56 c0 -7 9 -35 19
-62 55 -140 81 -218 74 -225 -9 -8 -221 -89 -233 -89 -5 0 22 90 58 199 58
173 82 226 82 177z"/>
<path d="M663 3182 c-12 -2 -20 -9 -18 -15 2 -7 6 -30 9 -52 3 -22 9 -60 15
-85 5 -25 13 -61 16 -80 16 -96 85 -322 145 -475 175 -445 455 -833 815 -1130
87 -71 328 -245 340 -245 3 0 34 -18 70 -40 143 -88 374 -193 545 -248 137
-45 353 -96 451 -107 73 -8 136 -15 175 -20 51 -7 53 -5 94 110 181 507 187
523 198 495 13 -33 112 -324 164 -479 l41 -123 76 6 c102 9 127 13 261 42 63
14 126 28 140 30 48 9 255 77 355 116 118 46 286 130 405 201 74 44 286 190
300 207 3 3 46 40 95 81 184 155 373 369 521 589 75 113 218 378 252 470 8 19
17 44 22 55 42 100 100 290 129 420 18 83 24 110 36 188 3 15 7 41 10 57 4 20
1 30 -7 31 -49 5 -1087 4 -1102 -1 -14 -5 -27 -37 -53 -125 -18 -66 -54 -166
-78 -224 -40 -94 -130 -262 -161 -301 -7 -8 -33 -42 -57 -75 -98 -131 -252
-272 -411 -377 -88 -59 -346 -191 -355 -183 -2 2 -5 17 -7 32 -6 44 -14 124
-19 173 -3 25 -7 56 -9 70 -5 24 -15 108 -21 175 -1 17 -8 71 -14 120 -6 50
-14 113 -16 140 -3 28 -8 66 -10 85 -6 47 -13 104 -20 170 -4 30 -8 66 -10 80
-2 14 -9 73 -16 133 -11 98 -14 107 -33 108 -70 2 -869 0 -871 -3 -3 -3 -9
-48 -20 -153 -12 -107 -16 -143 -20 -175 -12 -94 -22 -179 -30 -250 -6 -54
-10 -91 -20 -167 -2 -21 -14 -117 -25 -213 -26 -229 -31 -272 -34 -292 -1 -10
-5 -20 -9 -24 -8 -8 -122 39 -200 83 -33 18 -61 33 -63 33 -11 0 -154 99 -209
143 -224 184 -369 366 -484 608 -66 139 -105 252 -127 369 -3 14 -9 29 -14 34
-8 8 -1084 15 -1137 8z"/>
</g>
</svg>
